<?xml version="1.0" encoding="UTF-8" standalone="no" ?>
<!DOCTYPE svg PUBLIC "-//W3C//DTD SVG 1.1//EN" "http://www.w3.org/Graphics/SVG/1.1/DTD/svg11.dtd">
<svg xmlns="http://www.w3.org/2000/svg" xmlns:xlink="http://www.w3.org/1999/xlink" version="1.1" width="1280" height="1024" viewBox="0 0 1280 1024" xml:space="preserve">
<desc>Created with Fabric.js 5.3.0</desc>
<defs>
</defs>
<g transform="matrix(1 0 0 1 640 512)" id="background-logo"  >
<rect style="stroke: none; stroke-width: 0; stroke-dasharray: none; stroke-linecap: butt; stroke-dashoffset: 0; stroke-linejoin: miter; stroke-miterlimit: 4; fill: rgb(18,3,4); fill-rule: nonzero; opacity: 1;"  paint-order="stroke"  x="-640" y="-512" rx="0" ry="0" width="1280" height="1024" />
</g>
<g transform="matrix(1.0393028429987643 0 0 1.0393028429987643 261.00437500000004 512)" id="logo-logo"  >
<g style=""  paint-order="stroke"   >
		<g transform="matrix(1.9220608853518935 0 0 1.9220608853518935 0 0)"  >
<linearGradient id="SVGID_159296_522835" gradientUnits="userSpaceOnUse" gradientTransform="matrix(1 0 0 1 0 0)"  x1="151.6278806" y1="178.6905398" x2="206.1249845" y2="124.1934359">
<stop offset="0%" style="stop-color:rgb(223,38,56);stop-opacity: 1"/>
<stop offset="100%" style="stop-color:rgb(182,27,43);stop-opacity: 1"/>
</linearGradient>
<path style="stroke: none; stroke-width: 1; stroke-dasharray: none; stroke-linecap: butt; stroke-dashoffset: 0; stroke-linejoin: miter; stroke-miterlimit: 4; fill: url(#SVGID_159296_522835); fill-rule: nonzero; opacity: 1;"  paint-order="stroke"  transform=" translate(-180.5, -149.99996944999998)" d="M 157.3112793 137.8778076 L 203.3103638 137.8778076 C 204.2562256 139.1036377 205.0582886 140.43542480000002 205.6864014 141.86560060000002 L 192.0924683 141.86560060000002 C 190.7415162 141.07922360000003 189.1758423 140.62121580000002 187.5 140.62121580000002 C 185.8241577 140.62121580000002 184.2584839 141.0792236 182.9075317 141.86560060000002 L 169.3199463 141.86560060000002 C 169.5794678 141.27459720000002 169.8756104 140.70471190000004 170.1924439 140.1478882 L 163.3799439 140.1478882 C 163.6737061 139.625 164.0000001 139.1246338 164.341858 138.6345215 L 156.76641850000001 138.6345215 C 156.94049080000002 138.3772583 157.1221314 138.1275635 157.31127930000002 137.8778076 Z M 167.6661377 119.4902954 C 165.53314210000002 119.98480219999999 163.421814 120.5574951 161.33685300000002 121.20800779999999 L 213.66943360000002 121.20800779999999 C 205.27777100000003 118.58984369999999 196.46234130000002 117.2202148 187.50311280000003 117.2202148 C 186.34143070000002 117.2202148 185.1824951 117.2455444 184.0262451 117.2913208 C 182.9172973 117.2492065 181.8066406 117.2202148 180.6929321 117.2202148 C 179.42095940000002 117.2202148 178.152893 117.2567749 176.88720700000002 117.3116455 C 175.63653560000003 117.2575073 174.38360590000002 117.2202148 173.12603760000002 117.2202148 C 169.26696780000003 117.2202148 165.43811040000003 117.477539 161.65466310000002 117.97692869999999 L 169.25683600000002 117.97692869999999 C 166.43029790000003 118.34857179999999 163.6293946 118.84851069999999 160.8677369 119.4902954 L 167.6661378 119.4902954 Z M 153.717041 145.5203857 L 161.2851562 145.5203857 C 161.16772459999999 146.0190429 161.06408689999998 146.5218505 160.9887695 147.0337524 L 167.80450439999998 147.0337524 C 167.71905519999999 147.5999755 167.6525879 148.1721191 167.6173706 148.7514038 L 178.40844729999998 148.7514038 C 178.5709839 147.29016109999998 179.07800299999997 145.9345093 179.8457642 144.76373289999998 L 153.8986206 144.76373289999998 C 153.8305054 145.01342769999997 153.76239009999998 145.26312249999998 153.717041 145.5203857 Z M 206.7230225 144.7637329 L 195.1542359 144.7637329 C 195.9219971 145.9345093 196.4290162 147.2901611 196.59155280000002 148.75140380000002 L 207.38891610000002 148.75140380000002 C 207.3057252 147.38183590000003 207.07873540000003 146.04254150000003 206.7230225 144.7637329 Z M 207.3510742 151.6495361 L 196.4577637 151.6495361 C 196.1458741 153.1457519 195.4682617 154.5067138 194.52325439999998 155.63732910000002 L 206.61706539999997 155.63732910000002 C 206.99542229999997 154.35852050000003 207.24517819999997 153.0267334 207.35107419999997 151.6495361 Z M 205.5047607 158.5354004 L 190.13677969999998 158.5354004 C 189.30139149999997 158.786499 188.41717519999997 158.92504879999998 187.49999989999998 158.92504879999998 C 186.58282459999998 158.92504879999998 185.6986083 158.786499 184.86322009999998 158.5354004 L 169.50152579999997 158.5354004 L 169.50158679999996 158.53546139999997 L 155.12445059999996 158.53546139999997 C 155.24554439999997 158.79272459999999 155.36657709999997 159.04241939999997 155.51037589999996 159.2921142 L 163.08081049999996 159.2921142 C 163.35369869999997 159.8085937 163.64160149999995 160.31646719999998 163.96258539999997 160.80554189999998 L 170.76794429999995 160.80554189999998 C 171.15228269999994 161.39953599999998 171.56317139999996 161.97448719999997 172.00616449999995 162.52319329999997 L 203.00012199999995 162.52319329999997 C 203.98382559999996 161.30493159999997 204.83129879999996 159.97314449999996 205.50476069999993 158.53540029999996 Z M 214.0099487 138.6345215 L 221.56976319999998 138.6345215 C 222.37414549999997 139.1246338 223.17358399999998 139.625 223.96044919999997 140.1478882 L 230.73449709999997 140.1478882 C 231.57458499999996 140.7067261 232.41064459999998 141.27233890000002 233.22985839999998 141.86560060000002 L 248.53765869999998 141.86560060000002 C 247.10748289999998 140.480835 245.63195799999997 139.14904790000003 244.111023 137.8778076 L 212.7462769 137.8778076 C 213.170044 138.1199951 213.5938111 138.3696899 214.0099488 138.6345215 Z M 223.5366821 145.5203857 L 231.0783691 145.5203857 C 231.6696777 146.0197753 232.2637939 146.5141601 232.84393310000002 147.0337524 L 239.64312740000003 147.0337524 C 240.27178950000004 147.597351 240.89703360000001 148.1658935 241.50805660000003 148.7514038 L 255.01489250000003 148.7514038 L 253.22155750000002 146.7310791 C 252.6313475 146.06518549999998 252.0260009 145.40686029999998 251.40551750000003 144.76373289999998 L 222.63623040000004 144.76373289999998 C 222.93884270000004 145.01342769999997 223.24157710000006 145.26312249999998 223.53668210000004 145.5203857 Z M 161.5109253 166.1779785 L 169.074707 166.1779785 C 169.85614009999998 166.7387085 170.67681879999998 167.2481079 171.53704829999998 167.6913452 L 178.35137939999998 167.6913452 C 179.81359859999998 168.4487305 181.37768559999998 169.0355835 183.0235596 169.4090576 C 184.4613037 169.7495117 185.9595337 169.923584 187.5031128 169.923584 C 189.04681399999998 169.923584 190.545044 169.7495117 191.9827881 169.4090576 C 195.0170899 168.720459 197.7865601 167.32818600000002 200.1171875 165.4213257 L 160.51965330000002 165.4213257 C 160.84503170000002 165.6860962 161.17041010000003 165.9434204 161.51092530000003 166.17797850000002 Z M 200.5863037 134.9797363 C 198.54321290000001 133.1939087 196.13696290000001 131.82434080000002 193.4961548 130.9919433 C 191.6044312 130.4017333 189.5916138 130.0763549 187.5031128 130.0763549 C 185.4147339 130.0763549 183.4019165 130.40173330000002 181.5101929 130.9919433 L 167.13311769999999 130.9919433 C 166.45208739999998 131.2114257 165.78619389999997 131.4611205 165.135437 131.7486572 L 172.723938 131.7486572 C 171.737854 132.1809692 170.7876587 132.6807251 169.89501950000002 133.2620239 L 176.70178220000003 133.2620239 C 175.90093990000003 133.78094480000001 175.13690180000003 134.3530273 174.41998290000004 134.9797363 L 200.58630370000003 134.9797363 Z M 199.7463989 131.7486572 L 207.2816162 131.7486572 C 208.5847778 132.2203369 209.8781128 132.7142944 211.1496582 133.2620239 L 217.9442749 133.2620239 C 219.2196045 133.8037109 220.484314 134.3696899 221.72821040000002 134.9797363 L 240.46380610000003 134.9797363 C 238.60235590000002 133.5646972 236.68035880000002 132.2329712 234.72052000000002 130.9919433 L 197.56713870000002 130.9919433 C 198.30108650000003 131.2341308 199.0199585 131.4838256 199.74639900000003 131.7486572 Z M 153.3538208 152.40625 L 160.9237061 152.40625 C 160.98266610000002 152.916687 161.05633550000002 153.4227905 161.1627808 153.9196167 L 167.97088630000002 153.9196167 C 168.08618170000003 154.50140380000002 168.22296150000003 155.0753784 168.38922130000003 155.63732910000002 L 180.47674570000004 155.63732910000002 C 179.53173840000005 154.50671390000002 178.85412610000003 153.14575200000002 178.54223640000004 151.6495361 L 153.27813730000003 151.6495361 C 153.29327400000003 151.9068603 153.31597910000002 152.15655510000002 153.35382090000002 152.40625 Z M 132.9837646 173.0638428 L 140.5736694 173.0638428 C 141.5941162 173.58648680000002 142.6217041 174.0961304 143.6605835 174.5772095 L 150.4628296 174.5772095 C 151.7628784 175.1813965 153.0761719 175.756897 154.40557859999998 176.29492190000002 L 220.600708 176.29492190000002 C 223.49884029999998 175.12207030000002 226.3287964 173.79028320000003 229.0831909 172.3071289 L 131.56115720000003 172.3071289 C 132.03027340000003 172.5720215 132.507019 172.82171630000002 132.98376460000003 173.0638428 Z M 204.8615723 166.1779785 L 212.4240723 166.1779785 C 211.23217780000002 166.7092285 210.03143310000002 167.2229004 208.8115235 167.6913452 L 215.6111451 167.6913452 C 213.9924317 168.3165283 212.35424809999998 168.8920898 210.6956788 169.4090576 L 234.0773316 169.4090576 C 236.0825196 168.16809080000002 238.0347901 166.8363037 239.9340821 165.4213257 L 206.51116950000002 165.4213257 C 205.96636970000003 165.6860962 205.4140015 165.9358521 204.86157230000003 166.17797850000002 Z M 140.9289551 169.4090576 L 164.310669 169.4090576 C 160.8147584 168.319458 157.40209969999998 166.9876709 154.095337 165.4213257 L 120.7102662 165.4213257 C 121.05078130000001 165.6860962 121.39886480000001 165.9358521 121.7469483 166.17797850000002 L 129.3088379 166.17797850000002 C 130.0241089 166.694397 130.74438479999998 167.2023315 131.47790529999997 167.69134520000003 L 138.28631589999998 167.69134520000003 C 139.15759279999997 168.27935790000004 140.03601069999996 168.85644530000002 140.92895509999997 169.40905760000004 Z M 151.0458984 179.949707 L 158.6260986 179.949707 C 160.9127807 180.54534909999998 163.225708 181.05255119999998 165.559143 181.46313469999998 L 172.43792720000002 181.46313469999998 C 177.3801879 182.32684319999998 182.41754150000003 182.77972409999998 187.50311270000003 182.77972409999998 C 195.97802730000004 182.77972409999998 204.32434070000002 181.54632569999998 212.30743400000003 179.19305419999998 L 148.32183830000002 179.19305419999998 C 149.22229000000002 179.4578857 150.13031000000004 179.71514889999997 151.04589840000003 179.949707 Z M 232.6697998 158.5354614 L 218.2852783 158.5354614 C 217.9295654 158.7927246 217.5664062 159.0499878 217.19561769999999 159.29211420000001 L 224.7635498 159.29211420000001 C 224.00811769999999 159.80859370000002 223.246521 160.3164672 222.4772949 160.8055419 L 229.27685540000002 160.8055419 C 228.33917230000003 161.39801020000002 227.39349360000003 161.97583 226.4347533 162.5231933 L 243.6267699 162.5231933 C 245.17041 161.2519531 246.66864 159.920166 248.1214598 158.5354003 L 232.6698607 158.5354003 L 232.6697997 158.53546129999998 Z M 141.6629639 126.3762207 L 148.4767456 126.3762207 C 147.3653564 126.9265747 146.2619629 127.4945679 145.17395019999998 128.0938721 L 174.88159179999997 128.0938721 C 179.02825929999997 127.40527349999999 183.24304199999997 127.05719 187.50311279999997 127.05719 C 191.76330569999996 127.05719 195.97802739999997 127.4052735 200.12475589999997 128.0938721 L 229.83227539999996 128.0938721 C 227.16119389999994 126.6182862 224.40686039999997 125.2940674 221.59197999999995 124.1060791 L 153.41430669999994 124.1060791 C 153.41430669999994 124.1060791 153.41430669999994 124.1061401 153.41424569999995 124.1061401 L 139.03723149999996 124.1061401 C 138.45465089999996 124.3482055 137.87194829999996 124.6055297 137.29687509999997 124.8627929 L 144.88751229999997 124.8627929 C 143.80529789999997 125.347412 142.72790539999997 125.8462524 141.66296399999996 126.3762206 Z M 225.8899536 152.40625 L 233.4341431 152.40625 C 232.8775635 152.9157715 232.3243409 153.4302979 231.7543335 153.9196167 L 238.5596314 153.9196167 C 237.8832398 154.5032959 237.2010499 155.07952880000002 236.5062867 155.63732910000002 L 251.0195924 155.63732910000002 C 251.7762452 154.86547850000002 252.5026857 154.07098390000002 253.2215577 153.26885990000002 L 254.6592408 151.64953620000003 L 226.6996461 151.64953620000003 C 226.4347535 151.90686040000003 226.1623536 152.15655520000004 225.8899537 152.40625010000002 Z M 122.5641479 160.805542 L 129.3754882 160.805542 C 130.03985590000002 161.3892212 130.7091064 161.965332 131.3871459 162.5231934 L 148.5715331 162.5231934 C 146.43768300000002 161.3049317 144.349182 159.97314459999998 142.33636460000002 158.5354004 L 126.89239490000003 158.5354004 L 126.89245590000003 158.53546139999997 L 112.52288800000002 158.53546139999997 C 112.78771950000002 158.8002929 113.06018050000003 159.04998779999997 113.33258040000003 159.2921142 L 120.90948470000002 159.2921142 C 121.45825180000003 159.8016357 122.00415020000003 160.31622309999997 122.56414780000001 160.80554189999998 Z M 121.489624 140.1478882 L 128.3117065 140.1478882 C 127.69317620000001 140.71148680000002 127.07769770000002 141.28002930000002 126.47625730000001 141.86560060000002 L 141.78399660000002 141.86560060000002 C 143.75897220000002 140.42785650000002 145.79449460000004 139.09606940000003 147.88293460000003 137.8778076 L 116.52575690000003 137.8778076 C 116.22308360000004 138.1199951 115.92041020000003 138.37725830000002 115.62530520000003 138.6345215 L 123.22497560000002 138.6345215 C 122.64373780000003 139.1339111 122.05969240000002 139.6282959 121.48962400000002 140.1478882 Z M 130.0856323 133.2620239 L 136.9104004 133.2620239 C 136.114502 133.8226928 135.3220825 134.3895263 134.54248049999998 134.9797363 L 153.27813719999997 134.9797363 C 156.44110109999997 133.42846680000002 159.70996089999997 132.0966797 163.0620727 130.9919433 L 125.90869139999998 130.9919433 C 125.51519769999999 131.2341308 125.12170409999997 131.491394 124.72827149999998 131.7486572 L 132.31494139999998 131.7486572 C 131.5643921 132.24102779999998 130.81866449999998 132.7434082 130.0856323 133.2620239 Z M 114.9821167 153.2688599 C 115.178894 153.48828129999998 115.368042 153.7001953 115.5723267 153.9196167 L 122.3952027 153.9196167 C 122.92041019999999 154.49755860000002 123.4434205 155.0775757 123.9866944 155.63732910000002 L 138.5000001 155.63732910000002 C 136.9260865 154.3735962 135.4051515 153.0418701 133.9295655 151.6495361 L 105.9851075 151.6495361 L 106.6585694 152.40625 L 114.2162476 152.40625 L 114.9821167 153.2688599 Z M 114.9821167 146.7310791 L 114.70971680000001 147.0337524 L 121.52362060000002 147.0337524 L 119.99896240000001 148.7514038 L 133.50585940000002 148.7514038 C 134.9586792 147.3591309 136.45697020000003 146.0273437 138.00061040000003 144.76373289999998 L 109.21618660000003 144.76373289999998 C 108.97399910000003 145.01342769999997 108.73944100000003 145.26312249999998 108.51245120000003 145.5203857 L 116.09503180000003 145.5203857 C 115.72210700000002 145.9226684 115.34533700000003 146.32128899999998 114.98211680000003 146.7310791 Z" stroke-linecap="round" />
</g>
</g>
</g>
<g transform="matrix(1.9211538461538462 0 0 1.9211538461538462 817.1101057692308 508.05850186785267)" id="text-logo"  >
<g style=""  paint-order="stroke"   >
		<g transform="matrix(1 0 0 1 0 0)" id="text-logo-path-0"  >
<path style="stroke: none; stroke-width: 0; stroke-dasharray: none; stroke-linecap: butt; stroke-dashoffset: 0; stroke-linejoin: miter; stroke-miterlimit: 4; fill: rgb(255,255,255); fill-rule: nonzero; opacity: 1;"  paint-order="stroke"  transform=" translate(-183.085, 18.525000000000002)" d="M 13.41 0 L 32.86 0 L 32.86 -7.42 L 13.41 -7.42 C 10.6 -7.42 9.54 -8.48 9.54 -11.29 L 9.54 -37.1 L 2.12 -37.1 L 2.12 -11.29 C 2.12 -4.88 7 0 13.41 0 Z M 53.85 -11.29 L 53.85 -12.24 L 46.43 -12.24 L 46.43 -11.29 C 46.43 -4.88 51.31 0 57.72 0 L 65.88 0 C 72.3 0 77.17 -4.88 77.17 -11.29 L 77.17 -37.1 L 69.75 -37.1 L 69.75 -11.29 C 69.75 -8.48 68.69 -7.42 65.88 -7.42 L 57.72 -7.42 C 54.91 -7.42 53.85 -8.48 53.85 -11.29 Z M 46.43 -37.1 L 46.43 -14.89 L 53.85 -14.89 L 53.85 -37.1 Z M 114.07 -25.81 L 114.07 -24.91 L 121.49 -24.91 L 121.49 -25.81 C 121.49 -32.22 116.61 -37.1 110.2 -37.1 L 102.04 -37.1 C 95.62 -37.1 90.75 -32.22 90.75 -25.81 L 90.75 -11.29 C 90.75 -4.88 95.62 0 102.04 0 L 110.2 0 C 116.61 0 121.49 -4.88 121.49 -11.29 L 121.49 -12.24 L 114.07 -12.24 L 114.07 -11.29 C 114.07 -8.48 113.01 -7.42 110.2 -7.42 L 102.04 -7.42 C 99.23 -7.42 98.17 -8.48 98.17 -11.29 L 98.17 -25.81 C 98.17 -28.62 99.23 -29.68 102.04 -29.68 L 110.2 -29.68 C 113.01 -29.68 114.07 -28.62 114.07 -25.81 Z M 142.48 -37.1 L 135.06 -37.1 L 135.06 0 L 142.48 0 Z M 163.48 -12.19 L 156.06 -12.19 L 156.06 0 L 175.51 0 C 181.92 0 186.8 -4.88 186.8 -11.29 L 186.8 -25.81 C 186.8 -32.22 181.92 -37.1 175.51 -37.1 L 156.06 -37.1 L 156.06 -14.84 L 163.48 -14.84 L 163.48 -29.68 L 175.51 -29.68 C 178.32 -29.68 179.38 -28.62 179.38 -25.81 L 179.38 -11.29 C 179.38 -8.48 178.32 -7.42 175.51 -7.42 L 163.48 -7.42 Z M 211.66 0 L 231.11 0 L 231.11 -7.42 L 211.66 -7.42 C 208.85 -7.42 207.79 -8.48 207.79 -11.29 L 207.79 -37.1 L 200.37 -37.1 L 200.37 -11.29 C 200.37 -4.88 205.25 0 211.66 0 Z M 255.97 0.05 L 275.42 0.05 L 275.42 -7.37 L 255.97 -7.37 C 253.16 -7.37 252.1 -8.43 252.1 -11.24 L 252.1 -12.19 L 244.68 -12.19 L 244.68 -11.24 C 244.68 -4.82 249.56 0.05 255.97 0.05 Z M 244.68 -37.1 L 244.68 -14.84 L 271.71 -14.84 L 271.71 -22.26 L 252.1 -22.26 L 252.1 -29.68 L 275.42 -29.68 L 275.42 -37.1 Z M 289 0 L 296.42 0 L 296.42 -12.19 L 289 -12.19 Z M 289 -25.81 L 289 -14.84 L 296.42 -14.84 L 296.42 -25.81 C 296.42 -28.62 297.48 -29.68 300.29 -29.68 L 308.45 -29.68 C 311.26 -29.68 312.32 -28.62 312.32 -25.81 L 312.32 0 L 319.74 0 L 319.74 -25.81 C 319.74 -32.22 314.86 -37.1 308.45 -37.1 L 300.29 -37.1 C 293.87 -37.1 289 -32.22 289 -25.81 Z M 344.6 -29.68 L 360.34 -29.68 L 360.34 -37.1 L 344.6 -37.1 C 338.19 -37.1 333.31 -32.22 333.31 -25.81 C 333.31 -19.5 338.24 -14.84 344.6 -14.84 L 352.76 -14.84 C 355.62 -14.84 356.63 -13.89 356.63 -11.29 C 356.63 -8.48 355.57 -7.42 352.76 -7.42 L 334.9 -7.42 L 334.9 0 L 352.76 0 C 359.18 0 364.05 -4.88 364.05 -11.29 C 364.05 -17.6 359.12 -22.26 352.76 -22.26 L 344.6 -22.26 C 341.74 -22.26 340.73 -23.21 340.73 -25.81 C 340.73 -28.62 341.79 -29.68 344.6 -29.68 Z" stroke-linecap="round" />
</g>
</g>
</g>
</svg>